<svg xmlns="http://www.w3.org/2000/svg" viewBox="0 0 48 48">
  <rect x="2" y="2" width="44" height="44" rx="12" fill="#181818" stroke="#e50914" stroke-width="1.7"/>
  <path d="M11 12.5c5.8.4 9.3 2.1 13 5.4v18.5c-3.7-3.3-7.2-5-13-5.4z" fill="none" stroke="#f5f5f1" stroke-width="1.55" stroke-linejoin="round"/>
  <path d="M37 12.5c-5.8.4-9.3 2.1-13 5.4v18.5c3.7-3.3 7.2-5 13-5.4z" fill="none" stroke="#f5f5f1" stroke-width="1.55" stroke-linejoin="round"/>
  <path d="M27.5 22.5h4.2m-4.2 0v5m0-5-3.5-2.2m3.5 7h4.2m-4.2 0-3.5 2.2" fill="none" stroke="#ffb3b6" stroke-width="1.15" stroke-linecap="round"/>
  <circle cx="34.2" cy="22.5" r="2.1" fill="#e50914"/>
  <circle cx="34.2" cy="27.5" r="2.1" fill="#48b9a7"/>
  <path d="M8 33.5c6.8 5.8 18.5 6.5 27.8.5" fill="none" stroke="#e50914" stroke-width="1.2" stroke-linecap="round"/>
  <path d="m24.2 30.2 5 2.8-5 2.8z" fill="#e50914"/>
</svg>
